<?xml version="1.0" encoding="utf-8"?>
<!-- Generator: Adobe Illustrator 18.0.0, SVG Export Plug-In . SVG Version: 6.00 Build 0)  -->
<!DOCTYPE svg PUBLIC "-//W3C//DTD SVG 1.1//EN" "http://www.w3.org/Graphics/SVG/1.1/DTD/svg11.dtd">
<svg version="1.1" id="Layer_1" xmlns="http://www.w3.org/2000/svg" xmlns:xlink="http://www.w3.org/1999/xlink" x="0px" y="0px"
	 width="2272px" height="1872px" viewBox="0 0 2272 1872" enable-background="new 0 0 2272 1872" xml:space="preserve">
<g>
	<g>
		<circle fill="#49B0E4" cx="1850.7" cy="562.5" r="336"/>
		<path fill="#FFFFFF" d="M1906.2,660.8c2.2-0.4,5.3-2.7,5.3-13.1c0-15.7-29.2-12.4-29.2-38.2c0.8-0.4,5.5-3.9,8-5.8
			c1-0.8,1.6-2,1.6-3.2l0,0c0-2.2-1.8-4.1-4.1-4.1c-6.2,0-17.3-2.6-17.3-20.6c0-19.2,6.1-33.1,9-38.5h4.4c3.4,0,6.4-2.5,6.7-5.9
			c0.4-3.9-2.7-7.2-6.5-7.2h-3.2c-2.1,0-10.3-3.2-17.7-9.2c15-5.3,25.7-19.9,25-36.9c-0.8-19.2-16.4-34.9-35.6-35.8
			c-21.5-1-39.2,16.1-39.2,37.4c0,16.3,10.4,30.2,25,35.3c-7.4,6-15.6,9.2-17.7,9.2h-2.2c-3.4,0-6.4,2.5-6.7,5.9
			c-0.4,3.9,2.7,7.2,6.5,7.2h3.9c2.8,5.4,9,19.3,9,38.5c0,18-11.1,20.6-17.3,20.6c-2.2,0-4.1,1.8-4.1,4.1l0,0c0,1.3,0.6,2.5,1.6,3.2
			c2.5,1.9,7.1,5.4,8,5.8c0,25.8-29.2,22.5-29.2,38.2c0,10.4,3.2,12.7,5.3,13.1c-8.7,1.2-8.6,10.3-8.6,10.3v11.6h128.1v-11.6
			C1914.8,671.1,1914.9,662,1906.2,660.8z"/>
		<path fill="#44A1D0" d="M1879.2,455.4c5.3,6.2,8.6,14.1,9,22.7c0.7,17-9.9,31.6-25,36.9c7.4,6,15.6,9.2,17.7,9.2h3.2
			c3.8,0,6.9,3.3,6.5,7.2c-0.3,3.4-3.3,5.9-6.7,5.9h-4.4c-2.8,5.4-9,19.3-9,38.5c0,18,11.1,20.6,17.3,20.6c2.2,0,4.1,1.8,4.1,4.1
			c0,1.3-0.6,2.5-1.6,3.2c-2.5,1.9-7.1,5.4-8,5.8c0,25.8,29.2,22.5,29.2,38.2c0,10.4-3.2,12.7-5.3,13.1c8.7,1.2,8.6,10.3,8.6,10.3
			v11.6h-128.1v0v0l191,191c72.1-29.5,131.8-83.2,168.6-151.2L1879.2,455.4z"/>
	</g>
	<g>
		<circle fill="#25B359" cx="421.3" cy="1309.5" r="336"/>
		<path fill="#FFFFFF" d="M504.7,1427.7c0,0,9.7-5.1,9.7-17.8c0-12.7-40.1-29-40.1-45.9c0-16.9,16.1-15,16.1-15.7s0-9.2,0-9.2
			s-22.1-0.4-25.8-12.7c-2.8-9.1-9.7-63.4-13.3-91.6H463c4.8,0,8.6-3.9,8.6-8.6c0-4.8-3.9-8.6-8.6-8.6h8.6c5.8,0,10.4-4.7,10.4-10.4
			l0,0c0-5.7-4.6-10.4-10.4-10.4c3.8-12.5,16.4-49.1,16.4-49.1h-19.7l-8.1,23.7H442l6.2-23.7h-26.9h-26.9l6.2,23.7h-18.3l-8.1-23.7
			h-19.7c0,0,12.6,36.6,16.4,49.1c-5.7,0-10.4,4.7-10.4,10.4l0,0c0,5.8,4.7,10.4,10.4,10.4h8.6c-4.8,0-8.6,3.9-8.6,8.6
			c0,4.8,3.9,8.6,8.6,8.6h11.7c-3.5,28.2-10.5,82.6-13.3,91.6c-3.7,12.4-25.8,12.7-25.8,12.7s0,8.4,0,9.2s16.1-1.1,16.1,15.7
			c0,16.9-40.1,33.1-40.1,45.9c0,12.7,9.7,17.8,9.7,17.8c-7.5,2.1-9.7,8.6-9.7,8.6v17.4h93.1h0.2h93.1v-17.4
			C514.4,1436.3,512.2,1429.7,504.7,1427.7z"/>
		<g>
			<polygon fill="#21A452" points="442,1171.2 460.2,1171.2 463.2,1162.6 448.1,1147.5 448.1,1147.5 			"/>
			<path fill="#21A452" d="M488,1147.5L488,1147.5c0,0-12.6,36.6-16.4,49.1c5.7,0,10.4,4.7,10.4,10.4l0,0c0,5.8-4.7,10.4-10.4,10.4
				H463c4.8,0,8.6,3.9,8.6,8.6c0,4.8-3.9,8.6-8.6,8.6h-11.7c3.5,28.2,10.5,82.6,13.3,91.6c3.7,12.4,25.8,12.7,25.8,12.7s0,8.4,0,9.2
				s-16.1-1.1-16.1,15.7s40.1,33.1,40.1,45.9c0,12.7-9.7,17.8-9.7,17.8c7.5,2.1,9.7,8.6,9.7,8.6v17.4h-93.1h-0.2h-93.1l180.4,180.4
				c113.2-30.4,202.8-118.4,235.5-230.7L488,1147.5z"/>
			<polygon fill="#21A452" points="397.9,1171.2 374.2,1147.5 382.3,1171.2 			"/>
		</g>
	</g>
	<g>
		<circle fill="#C46FAD" cx="1136" cy="1309.5" r="336"/>
		<path fill="#FFFFFF" d="M1203.4,1451.1c0,0,7.9-5.7,7.9-20.2c0-14.5-32.4-33-32.4-52.1c0-19.2,13-17,13-17.9c0-0.9,0-10.4,0-10.4
			s-17.8-0.4-20.9-14.5c-1.2-5.6-3.4-26.4-5.7-49.4h13.2c4,0,7.2-3.2,7.2-7.2v-2.9c0-4-3.2-7.2-7.2-7.2h-6.5c3.3,0,6-2.7,6-6l0,0
			c0-3.3-2.7-6-6-6h-9.5c-0.5-5.4-1-10.5-1.4-15.3c9.2-7.5,26.2-23.9,26.2-41.6c0-24.3-13.6-45.1-24.3-60
			c-10.6-14.9-11.5-29.4-11.5-29.4s-0.4,0-1,0c5.8-2.4,9.6-6.2,9.6-10.5c0-7.2-10.8-13.1-24.1-13.1s-24.1,5.9-24.1,13.1
			c0,4.3,3.8,8.1,9.6,10.5c-0.6,0-1,0-1,0s-0.9,14.5-11.5,29.4c-10.6,14.9-24.3,35.8-24.3,60c0,17.5,16.5,33.6,25.8,41.3
			c-0.4,4.9-0.9,10.2-1.4,15.7h-9.1c-3.3,0-6,2.7-6,6l0,0c0,3.3,2.7,6,6,6h-6.5c-4,0-7.2,3.2-7.2,7.2v2.9c0,4,3.2,7.2,7.2,7.2h12.8
			c-2.2,23-4.4,43.8-5.7,49.4c-3,14-20.9,14.5-20.9,14.5s0,9.6,0,10.4c0,0.9,13-1.3,13,17.9c0,19.2-32.4,37.7-32.4,52.1
			c0,14.5,7.9,20.2,7.9,20.2c-6,2.3-7.9,9.8-7.9,9.8v19.8h75.2h0.1h75.2v-19.8C1211.2,1460.9,1209.4,1453.5,1203.4,1451.1z"/>
		<path fill="#A25B90" d="M1152.5,1087.5c0,0-0.3,1.1-0.9,3c5.3,2.4,8.7,6,8.7,10.1c0,4.3-3.8,8.1-9.6,10.5c0.6,0,1,0,1,0
			s0.9,14.5,11.5,29.4c10.6,14.9,24.3,35.8,24.3,60c0,17.7-17,34-26.2,41.6c0.4,4.8,0.9,10,1.4,15.3h9.5c3.3,0,6,2.7,6,6v0
			c0,3.3-2.7,6-6,6h6.5c4,0,7.2,3.2,7.2,7.2v2.9c0,4-3.2,7.2-7.2,7.2h-13.2c2.2,23,4.4,43.8,5.7,49.4c3,14,20.9,14.5,20.9,14.5
			s0,9.6,0,10.4s-13-1.3-13,17.9c0,19.2,32.4,37.7,32.4,52.1s-7.9,20.2-7.9,20.2c6,2.3,7.9,9.8,7.9,9.8v19.8h-75.2h-0.1h-75.2v0v0
			c0,0,82.1,82.1,155.2,155.2c119.2-29.1,213.5-121.8,244.8-240.1L1152.5,1087.5z"/>
	</g>
	<g>
		<circle fill="#F26522" cx="1850.7" cy="1309.5" r="336"/>
		<path fill="#FFFFFF" d="M1925.9,1457.3c0,0,8.8-4.6,8.8-16s-36.1-26.1-36.1-41.3c0-15.2,14.5-13.5,14.5-14.2c0-0.7,0-8.3,0-8.3
			s-19.9-0.3-23.3-11.5c-3.4-11.1-13.8-97.8-13.8-97.8s-2.1-20.2,2.6-24.5v-0.3h19.9c4.1,0,7.4-3.3,7.4-7.4v-2.9
			c0-4.1-3.3-7.4-7.4-7.4h-4.6c3,0,5.4-2.4,5.4-5.4s-2.4-5.4-5.4-5.4h-1.8c0,0-4.6-27.1-3.7-49.5c0.8-22.3,28.4-54.3,26.7-58.6
			c-1.7-4.2-16.9,3.1-16.9,3.1s-3.9-8.1-4.8-8.4c-0.3-0.1-5.2,1.1-11.6,2.7c-5.1-9.7-14.6-16.7-25.8-18.3c4.1-2,6.9-6.2,6.9-11
			c0-6.7-5.5-12.2-12.2-12.2s-12.2,5.5-12.2,12.2c0,4.9,2.8,9.1,6.9,11c-11.2,1.7-20.7,8.7-25.8,18.4c-6.4-1.6-11.3-2.8-11.6-2.7
			c-0.8,0.3-4.8,8.4-4.8,8.4s-15.2-7.3-16.9-3.1c-1.7,4.2,25.8,36.2,26.7,58.6c0.8,22.3-3.7,49.5-3.7,49.5h-1.8
			c-3,0-5.4,2.4-5.4,5.4s2.4,5.4,5.4,5.4h-4.6c-4.1,0-7.4,3.3-7.4,7.4v2.9c0,4.1,3.3,7.4,7.4,7.4h19.8v0.3
			c4.7,4.4,2.8,24.5,2.8,24.5s-10.5,86.7-13.8,97.8c-3.4,11.1-23.3,11.5-23.3,11.5s0,7.6,0,8.3c0,0.7,14.5-1,14.5,14.2
			c0,15.2-36.1,29.8-36.1,41.3s8.8,16,8.8,16c-6.7,1.9-8.8,7.8-8.8,7.8v15.7h83.8h0.2h83.8V1465
			C1934.6,1465,1932.6,1459.1,1925.9,1457.3z"/>
		<g>
			<path fill="#E15E1F" d="M1863,1074.8c0,4.8-2.8,9-6.9,11l0,0c11.2,1.7,20.6,8.7,25.7,18.3c6.4-1.6,11.3-2.8,11.6-2.7
				c0.8,0.3,4.8,8.4,4.8,8.4s1.4-0.7,3.4-1.5l-41.3-41.3l0,0C1862,1069.3,1863,1071.9,1863,1074.8z"/>
			<path fill="#E15E1F" d="M2180.8,1372.7L1915,1106.8v0c0.2,0.5,0,1.4-0.5,2.6c-0.5,2.2-1.2,5.7-2,9.9l-2.3-2.3
				c-7.6,12.3-21.3,32.6-21.9,48.3c-0.8,22.3,3.7,49.5,3.7,49.5h1.8c3,0,5.4,2.4,5.4,5.4s-2.4,5.4-5.4,5.4h4.6
				c4.1,0,7.4,3.3,7.4,7.4v2.9c0,4.1-3.3,7.4-7.4,7.4h-19.9v0.3c-4.7,4.4-2.6,24.5-2.6,24.5s10.5,86.7,13.8,97.8
				c3.4,11.1,23.3,11.5,23.3,11.5s0,7.6,0,8.3s-14.5-1-14.5,14.2c0,15.2,36.1,29.8,36.1,41.3c0,11.5-8.8,16-8.8,16
				c6.7,1.9,8.8,7.8,8.8,7.8v15.7h-83.8h-0.2h-83.8l153.2,157.7c127.9-26.8,229-126.3,258.2-253.3l0,0
				C2179.2,1381,2180,1376.8,2180.8,1372.7z"/>
			<path fill="#E15E1F" d="M1775.6,1457.3c0,0-1.3-0.7-3-2.2l-0.9,4C1772.8,1458.3,1774.1,1457.7,1775.6,1457.3z"/>
		</g>
	</g>
	<g>
		<circle fill="#D73D2B" cx="421.3" cy="562.5" r="336"/>
		<path fill="#FFFFFF" d="M504.7,773.2c0,0,9.7-5.1,9.7-17.8c0-12.7-40.1-29-40.1-45.9c0-16.9,16.1-15,16.1-15.7c0-0.7,0-9.2,0-9.2
			s-22.1-0.4-25.8-12.7c-3.7-12.4-15.4-108.6-15.4-108.6s-2.2-6.4,3-11.2v-0.3h22.1c4.5,0,8.2-3.7,8.2-8.2v-3.2
			c0-4.5-3.7-8.2-8.2-8.2h-5.1c3.3,0,6-2.7,6-6c0-3.3-2.7-6-6-6h-17v-3l0.6-22.7c0,0,23.2-60.5,24.7-70.4
			c1.5-9.9-2.6-18.2-15.5-21.9c-6.7-1.9-16.6-3.2-25-4h4.7h0.2c2.3,0,4.1-1.9,4.1-4.1v-2.2c0-2.3-1.9-4.1-4.1-4.1h-0.2h-6l4-1.1
			l-7.3-26.7l22.6,4.7v0l0.2,0v-23.6l-0.2,0v0l-22.6,4.7l7.3-26.7l-15.3-7.8c3.3-1.3,5.7-4.6,5.7-8.3c0-5-4-9-9-9s-9,4-9,9
			c0,3.8,2.4,7.1,5.8,8.4l-15.2,7.8l7.3,26.7l-22.6-4.7v0l-0.2,0v23.6l0.2,0v0l22.6-4.7l-7.3,26.7l4,1.1h-6h-0.2
			c-2.3,0-4.1,1.9-4.1,4.1v2.2c0,2.3,1.9,4.1,4.1,4.1h0.2h4.7c-8.4,0.8-18.3,2.1-25,4c-12.9,3.7-17,12-15.5,21.9
			c1.5,9.9,24.7,70.4,24.7,70.4l0.6,22.7v3h-16.8c-3.3,0-6,2.7-6,6c0,3.3,2.7,6,6,6h-5.1c-4.5,0-8.2,3.7-8.2,8.2v3.2
			c0,4.5,3.7,8.2,8.2,8.2h21.9v0.3c5.2,4.9,3,11.2,3,11.2s-11.6,96.3-15.4,108.6c-3.7,12.4-25.8,12.7-25.8,12.7s0,8.4,0,9.2
			c0,0.7,16.1-1.1,16.1,15.7c0,16.9-40.1,33.1-40.1,45.9c0,12.7,9.7,17.8,9.7,17.8c-7.5,2.1-9.7,8.6-9.7,8.6v17.4h93.1h0.2h93.1
			v-17.4C514.4,781.8,512.2,775.3,504.7,773.2z"/>
		<path fill="#C23726" d="M429.2,298.6c0.6,1.2,1,2.6,1,4c0,3.8-2.3,7-5.7,8.3l15.3,7.8l-7.3,26.7l22.6-4.7v0l0.2,0v23.6l-0.2,0v0
			l-22.6-4.7l7.3,26.7l-4,1.1h6h0.2c2.3,0,4.1,1.9,4.1,4.1v2.2c0,2.3-1.9,4.1-4.1,4.1h-0.2H437c8.4,0.8,18.3,2.1,25,4
			c12.9,3.7,17,12,15.5,21.9c-1.5,9.9-24.7,70.4-24.7,70.4l-0.6,22.7v3h17c3.3,0,6,2.7,6,6c0,3.3-2.7,6-6,6h5.1
			c4.5,0,8.2,3.7,8.2,8.2v3.2c0,4.5-3.7,8.2-8.2,8.2h-22.1v0.3c-5.2,4.9-3,11.2-3,11.2s11.6,96.3,15.4,108.6
			c3.7,12.4,25.8,12.7,25.8,12.7s0,8.4,0,9.2c0,0.7-16.1-1.1-16.1,15.7c0,16.9,40.1,33.1,40.1,45.9c0,12.7-9.7,17.8-9.7,17.8
			c7.5,2.1,9.7,8.6,9.7,8.6v17.4h-93.1h-0.2h-93.1l99.2,99.2C590,895.6,724.6,777,752.1,621.5L429.2,298.6z"/>
	</g>
	<g>
		<circle fill="#F8B32B" cx="1136" cy="562.5" r="336"/>
		<path fill="#FFFFFF" d="M1217.3,692.5c2.9-2.7,6.6-7.2,6-16.1c-0.8-13.3-36.2-27.3-42.7-36.2h17.4c3.1,0,5.6-2.5,5.6-5.6
			s-2.5-5.6-5.6-5.6h-14.6v-10.1c10-0.2,16.5-0.4,16.9-0.8c1.7-1.7,30.3-165.2-28.7-222.5c0,0,7.3-20.5,5.6-20.2
			c-1.7,0.3-23,24.4-23,22.8c0-1.7-18.3-22.5-18-21.6c0.3,0.8-0.8,23.6-0.8,23.6l-19.1,8.4c0,0-55.3,47.2-55.3,48s-7.3,5.9-7.3,6.7
			c0,0.8,10.1,25,11,25c0.8,0,12.6,4.8,13.2,3.9c0.6-0.8,20.2-14.3,20.2-14.3s14.6-2,15.4-1.4c0.8,0.6,20.5,3.4,23,7.9
			c0,0-17.7,77.2-68.5,125l-1.4,8.7c2.2,0.3,13.4,0.6,28.4,0.8V629h-21.1c-3.1,0-5.6,2.5-5.6,5.6s2.5,5.6,5.6,5.6h17.4
			c-6.4,9-41.9,23-42.7,36.2c-0.5,8.9,3.1,13.4,6,16.1c-4.6,3.1-6.1,7.3-6.1,7.3v17.7h87.4h87.4v-17.7
			C1223.4,699.8,1221.9,695.6,1217.3,692.5z"/>
		<g>
			<polygon fill="#D79C26" points="1177.3,375.3 1177.3,375.3 1177.3,375.3 			"/>
			<path fill="#D79C26" d="M1113.5,476.5c-0.8-0.6-15.4,1.4-15.4,1.4s-19.7,13.5-20.2,14.3l0,0l41.4,41.4
				c12.3-27.6,17.3-49.3,17.3-49.3C1134,479.8,1114.4,477,1113.5,476.5z"/>
			<path fill="#D79C26" d="M1177.5,375.6c0.5,2.2-5.8,20-5.8,20c59,57.3,30.3,220.8,28.7,222.5c-0.4,0.4-6.9,0.6-16.9,0.8V629h14.6
				c3.1,0,5.6,2.5,5.6,5.6s-2.5,5.6-5.6,5.6h-17.4c6.4,9,41.9,23,42.7,36.2c0.5,8.9-3.1,13.4-6,16.1c4.6,3.1,6.1,7.3,6.1,7.3v17.7
				H1136h-87.4c0,0,88.5,91.1,167.8,171.3c116.3-28.6,208.9-117.7,242.2-232.1L1177.5,375.6z"/>
			<path fill="#D79C26" d="M1091.3,640.2h-4.1c0.7,0.7,1.3,1.4,2,2.2C1090.1,641.7,1090.8,640.9,1091.3,640.2z"/>
			<path fill="#D79C26" d="M1095,629v-10.2c-15-0.2-26.2-0.5-28.4-0.8c0,0,3.7,3.9,10.2,11H1095z"/>
		</g>
	</g>
</g>
</svg>
